PathFileType	4	(X/Y/Z)	 2.8Hzlow3min.trc
DataRate	CameraRate	NumFrames	NumMarkers	Units	OrigDataRate	OrigDataStartFrame	OrigNumFrames
200	200	9	35	m	200	251	1000
Frame#	Time	C7			LSH			RSH			MAN			RASI			LASI			HIPR			HIPL			RPSI			LPSI			COX			RTHI1			RTHI2			RTHI3			RTHI4			RSHA1			RSHA2			RSHA3			RSHA4			RHEEL			RMET5			RMET1			RTOE			LTHI1			LTHI2			LTHI3			LTHI4			LSHA1			LSHA2			LSHA3			LSHA4			LHEEL			LMET5			LMET1			LTOE			
		X1	Y1	Z1	X2	Y2	Z2	X3	Y3	Z3	X4	Y4	Z4	X5	Y5	Z5	X6	Y6	Z6	X7	Y7	Z7	X8	Y8	Z8	X9	Y9	Z9	X10	Y10	Z10	X11	Y11	Z11	X12	Y12	Z12	X13	Y13	Z13	X14	Y14	Z14	X15	Y15	Z15	X16	Y16	Z16	X17	Y17	Z17	X18	Y18	Z18	X19	Y19	Z19	X20	Y20	Z20	X21	Y21	Z21	X22	Y22	Z22	X23	Y23	Z23	X24	Y24	Z24	X25	Y25	Z25	X26	Y26	Z26	X27	Y27	Z27	X28	Y28	Z28	X29	Y29	Z29	X30	Y30	Z30	X31	Y31	Z31	X32	Y32	Z32	X33	Y33	Z33	X34	Y34	Z34	X35	Y35	Z35	
251	1.2550	-0.312218	1.659490	-0.507157	-0.303895	1.650744	-0.718497	-0.258921	1.654355	-0.321328	-0.169504	1.597270	-0.523873	-0.163848	1.152911	-0.406072	-0.171372	1.146820	-0.622221	-0.215847	1.207703	-0.357536	-0.239287	1.202668	-0.677675	-0.348830	1.186392	-0.449360	-0.359193	1.179275	-0.563981	-0.360297	1.192265	-0.503103	-0.252064	0.896055	-0.312594	-0.236977	0.839127	-0.302551	-0.172741	0.852195	-0.306091	-0.179871	0.911660	-0.320139	-0.333367	0.462477	-0.274014	-0.349110	0.422375	-0.278117	-0.290161	0.406519	-0.279881	-0.278931	0.445205	-0.279134	-0.446631	0.125177	-0.332505	-0.280584	0.035579	-0.279461	-0.243369	0.045879	-0.361209	-0.215345	0.035945	-0.360980	-0.251981	0.885004	-0.722400	-0.235789	0.826062	-0.730971	-0.172406	0.837210	-0.726063	-0.179600	0.896371	-0.717273	-0.326616	0.426572	-0.733254	-0.343031	0.389572	-0.731589	-0.283414	0.370645	-0.723984	-0.274401	0.413873	-0.727024	-0.459755	0.115881	-0.659460	-0.302722	0.033719	-0.736475	-0.246180	0.039769	-0.666061	-0.220288	0.032627	-0.675648	
252	1.2600	-0.311962	1.656468	-0.506989	-0.303520	1.647349	-0.718722	-0.258483	1.651030	-0.321100	-0.169465	1.593592	-0.523797	-0.164169	1.149857	-0.405951	-0.171734	1.143764	-0.622165	-0.216203	1.204424	-0.357358	-0.239833	1.199276	-0.677608	-0.349203	1.182656	-0.449266	-0.359604	1.175514	-0.563821	-0.360729	1.188447	-0.502986	-0.251560	0.892874	-0.312842	-0.236489	0.836021	-0.302579	-0.172277	0.849139	-0.306494	-0.179540	0.908598	-0.320509	-0.333118	0.459436	-0.273793	-0.348948	0.419320	-0.277960	-0.290042	0.403386	-0.279971	-0.278769	0.442125	-0.279241	-0.447495	0.122334	-0.332553	-0.280298	0.033691	-0.277969	-0.242652	0.044620	-0.361182	-0.214710	0.034118	-0.361379	-0.251604	0.881740	-0.722250	-0.235296	0.822827	-0.730757	-0.171952	0.834071	-0.725675	-0.179254	0.893226	-0.716933	-0.325990	0.423606	-0.733308	-0.342523	0.386661	-0.731673	-0.283011	0.367590	-0.723613	-0.273860	0.410790	-0.726689	-0.460672	0.113277	-0.658962	-0.302867	0.032480	-0.737908	-0.245603	0.039214	-0.666854	-0.219696	0.031491	-0.675624	
253	1.2650	-0.311723	1.653242	-0.506818	-0.303131	1.643760	-0.718972	-0.258004	1.647486	-0.320842	-0.169447	1.589726	-0.523720	-0.164498	1.146594	-0.405817	-0.172074	1.140526	-0.622090	-0.216564	1.200907	-0.357140	-0.240328	1.195685	-0.677538	-0.349579	1.178702	-0.449157	-0.360023	1.171543	-0.563635	-0.361163	1.184406	-0.502857	-0.251105	0.889488	-0.313098	-0.236083	0.832702	-0.302601	-0.171892	0.845872	-0.306830	-0.179271	0.905327	-0.320808	-0.332906	0.456161	-0.273569	-0.348823	0.416027	-0.277797	-0.289947	0.400021	-0.280069	-0.278695	0.438838	-0.279418	-0.448550	0.119321	-0.332569	-0.280023	0.032052	-0.276238	-0.242050	0.043689	-0.361052	-0.214186	0.032728	-0.361583	-0.251268	0.878306	-0.722147	-0.234853	0.819417	-0.730603	-0.171543	0.830753	-0.725382	-0.178952	0.889903	-0.716681	-0.325454	0.420428	-0.733366	-0.342116	0.383539	-0.731719	-0.282704	0.364309	-0.723273	-0.273413	0.407470	-0.726416	-0.461751	0.110556	-0.658516	-0.303190	0.031298	-0.739561	-0.245275	0.038722	-0.667660	-0.219296	0.030620	-0.675804	
254	1.2700	-0.311529	1.649867	-0.506661	-0.302731	1.639978	-0.719245	-0.257509	1.643799	-0.320555	-0.169431	1.585652	-0.523638	-0.164834	1.143141	-0.405670	-0.172390	1.137113	-0.622000	-0.216943	1.197160	-0.356876	-0.240777	1.191908	-0.677460	-0.349956	1.174543	-0.449044	-0.360449	1.167390	-0.563429	-0.361598	1.180155	-0.502712	-0.250729	0.885947	-0.313395	-0.235760	0.829194	-0.302629	-0.171592	0.842401	-0.307083	-0.179063	0.901860	-0.321009	-0.332745	0.452701	-0.273363	-0.348732	0.412552	-0.277648	-0.289877	0.396469	-0.280198	-0.278700	0.435379	-0.279655	-0.449793	0.116254	-0.332576	-0.279890	0.030718	-0.274527	-0.241775	0.043053	-0.360908	-0.213920	0.031790	-0.361705	-0.250977	0.874719	-0.722105	-0.234467	0.815849	-0.730520	-0.171187	0.827270	-0.725205	-0.178692	0.886416	-0.716533	-0.325052	0.417063	-0.733419	-0.341865	0.380251	-0.731729	-0.282551	0.360833	-0.722981	-0.273098	0.403944	-0.726212	-0.462996	0.107742	-0.658196	-0.303670	0.030197	-0.741194	-0.245255	0.038370	-0.668299	-0.219124	0.029959	-0.675920	
255	1.2750	-0.311379	1.646374	-0.506530	-0.302335	1.636054	-0.719548	-0.256977	1.639965	-0.320265	-0.169386	1.581453	-0.523566	-0.165180	1.139511	-0.405505	-0.172688	1.133537	-0.621891	-0.217353	1.193197	-0.356566	-0.241184	1.187951	-0.677375	-0.350336	1.170200	-0.448930	-0.360878	1.163072	-0.563222	-0.362031	1.175717	-0.502560	-0.250435	0.882256	-0.313659	-0.235507	0.825529	-0.302655	-0.171366	0.838773	-0.307231	-0.178914	0.898239	-0.321094	-0.332636	0.449126	-0.273181	-0.348672	0.408988	-0.277493	-0.289837	0.392836	-0.280316	-0.278753	0.431814	-0.279895	-0.451218	0.113196	-0.332551	-0.279951	0.029688	-0.273065	-0.241866	0.042602	-0.360857	-0.213969	0.031163	-0.361844	-0.250737	0.870994	-0.722128	-0.234144	0.812139	-0.730517	-0.170884	0.823640	-0.725161	-0.178476	0.882785	-0.716507	-0.324819	0.413572	-0.733473	-0.341813	0.376851	-0.731731	-0.282603	0.357190	-0.722753	-0.272953	0.400249	-0.726087	-0.464394	0.104858	-0.658027	-0.304252	0.029241	-0.742655	-0.245519	0.038169	-0.668622	-0.219179	0.029486	-0.675928	
256	1.2800	-0.311273	1.642795	-0.506438	-0.301927	1.631999	-0.719882	-0.256413	1.635989	-0.319982	-0.169296	1.577221	-0.523506	-0.165537	1.135722	-0.405314	-0.172968	1.129817	-0.621767	-0.217801	1.189033	-0.356214	-0.241554	1.183824	-0.677291	-0.350728	1.165712	-0.448819	-0.361315	1.158620	-0.563011	-0.362457	1.171126	-0.502404	-0.250214	0.878419	-0.313830	-0.235310	0.821737	-0.302669	-0.171198	0.835029	-0.307256	-0.178821	0.894501	-0.321047	-0.332587	0.445522	-0.273037	-0.348648	0.405420	-0.277356	-0.289828	0.389208	-0.280419	-0.278833	0.428224	-0.280120	-0.452790	0.110201	-0.332496	-0.280182	0.028909	-0.271968	-0.242264	0.042256	-0.360950	-0.214307	0.030760	-0.361979	-0.250545	0.867154	-0.722214	-0.233888	0.808313	-0.730589	-0.170638	0.819882	-0.725255	-0.178297	0.879030	-0.716616	-0.324768	0.410028	-0.733548	-0.341976	0.373400	-0.731739	-0.282883	0.353443	-0.722613	-0.272997	0.396438	-0.726049	-0.465896	0.101916	-0.657981	-0.304872	0.028458	-0.743909	-0.245978	0.037973	-0.668549	-0.219409	0.029173	-0.675856	
257	1.2850	-0.311209	1.639173	-0.506389	-0.301516	1.627845	-0.720238	-0.255831	1.631926	-0.319727	-0.169166	1.572945	-0.523469	-0.165905	1.131803	-0.405093	-0.173229	1.125978	-0.621630	-0.218297	1.184689	-0.355828	-0.241898	1.179538	-0.677203	-0.351133	1.161105	-0.448717	-0.361764	1.154063	-0.562786	-0.362878	1.166421	-0.502237	-0.250074	0.874489	-0.313946	-0.235160	0.817859	-0.302661	-0.171085	0.831216	-0.307151	-0.178777	0.890694	-0.320873	-0.332599	0.441971	-0.272976	-0.348659	0.401942	-0.277234	-0.289844	0.385656	-0.280500	-0.278928	0.424659	-0.280374	-0.454456	0.107195	-0.332359	-0.280539	0.028353	-0.271195	-0.242854	0.042017	-0.361137	-0.214796	0.030515	-0.362104	-0.250401	0.863223	-0.722352	-0.233696	0.804390	-0.730730	-0.170449	0.816025	-0.725490	-0.178157	0.875175	-0.716862	-0.324885	0.406493	-0.733663	-0.342337	0.369971	-0.731786	-0.283374	0.349658	-0.722581	-0.273211	0.392583	-0.726109	-0.467442	0.098919	-0.658025	-0.305481	0.027826	-0.744982	-0.246474	0.037776	-0.668384	-0.219724	0.028966	-0.675721	
258	1.2900	-0.311182	1.635564	-0.506386	-0.301130	1.623632	-0.720593	-0.255304	1.627815	-0.319507	-0.168986	1.568643	-0.523441	-0.166279	1.127783	-0.404841	-0.173472	1.122041	-0.621480	-0.218846	1.180195	-0.355419	-0.242226	1.175106	-0.677104	-0.351551	1.156416	-0.448627	-0.362217	1.149441	-0.562571	-0.363282	1.161634	-0.502061	-0.250012	0.870521	-0.314016	-0.235046	0.813949	-0.302625	-0.171022	0.827392	-0.306925	-0.178784	0.886875	-0.320587	-0.332647	0.438543	-0.272975	-0.348716	0.398598	-0.277141	-0.289890	0.382223	-0.280547	-0.279010	0.421174	-0.280648	-0.456121	0.104152	-0.332175	-0.280930	0.027966	-0.270638	-0.243474	0.041854	-0.361341	-0.215283	0.030361	-0.362238	-0.250307	0.859234	-0.722534	-0.233570	0.800411	-0.730929	-0.170313	0.812104	-0.725855	-0.178053	0.871258	-0.717234	-0.325132	0.403011	-0.733832	-0.342846	0.366607	-0.731890	-0.284022	0.345900	-0.722646	-0.273560	0.388747	-0.726262	-0.468973	0.095885	-0.658155	-0.306027	0.027323	-0.745915	-0.246987	0.037659	-0.668308	-0.220046	0.028803	-0.675571	
259	1.2950	-0.311143	1.631950	-0.506410	-0.300760	1.619410	-0.720942	-0.254841	1.623679	-0.319339	-0.168746	1.564388	-0.523427	-0.166656	1.123690	-0.404558	-0.173702	1.118034	-0.621322	-0.219450	1.175587	-0.354988	-0.242548	1.170550	-0.676991	-0.351982	1.151700	-0.448549	-0.362676	1.144787	-0.562367	-0.363667	1.156829	-0.501890	-0.250019	0.866571	-0.314014	-0.234965	0.810059	-0.302556	-0.170997	0.823631	-0.306592	-0.178842	0.883114	-0.320219	-0.332686	0.435266	-0.273014	-0.348800	0.395434	-0.277054	-0.289997	0.378944	-0.280598	-0.279073	0.417792	-0.280946	-0.457739	0.100989	-0.331929	-0.281271	0.027671	-0.270194	-0.243985	0.041737	-0.361530	-0.215662	0.030239	-0.362345	-0.250266	0.855223	-0.722737	-0.233507	0.796409	-0.731163	-0.170234	0.808159	-0.726323	-0.177995	0.867320	-0.717713	-0.325451	0.399629	-0.734055	-0.343428	0.363335	-0.732052	-0.284739	0.342227	-0.722792	-0.273982	0.385001	-0.726492	-0.470434	0.092820	-0.658320	-0.306476	0.026917	-0.746746	-0.247430	0.037581	-0.668235	-0.220326	0.028681	-0.675487	
